<svg width="202" height="152" viewBox="0 0 202 152" fill="none" xmlns="http://www.w3.org/2000/svg">
<path d="M57.1934 0.48999C58.2466 0.718029 59.4545 1.1468 60.5469 1.71558C61.6626 2.29655 62.6135 2.99979 63.1699 3.73999L73.6396 17.6794C74.2661 18.5165 75.4244 19.3987 76.6924 20.0681C77.9613 20.7379 79.4258 21.24 80.6904 21.24H193.679L194.132 21.2507C196.367 21.3548 198.131 22.1994 199.36 23.5554C200.677 25.0076 201.42 27.0923 201.42 29.6003L201.44 142.92C201.44 145.537 200.636 147.609 199.278 149.024C197.922 150.437 195.969 151.24 193.58 151.24L8.79004 151.27C6.30543 151.27 4.23556 150.514 2.79297 149.173C1.35496 147.835 0.495231 145.875 0.5 143.371V7.79956C0.50023 3.90642 3.61724 0.799325 7.30273 0.600342L7.66113 0.5896L57.1934 0.48999Z" fill="#EBF8FE" stroke="#C4E3F2"/>
</svg>
