<svg width="105" height="33" viewBox="0 0 105 33" fill="none" xmlns="http://www.w3.org/2000/svg">
<path d="M15.1403 16.7642H13.8698V19.3422H13.0613V12.9257H15.6601C16.8729 12.9257 17.6814 13.6705 17.6814 14.8735C17.6814 16.0194 16.8729 16.6496 16.0066 16.7642L17.7391 19.3995H16.7573L15.1403 16.7642ZM15.5445 13.6132H13.8698V16.0767H15.5445C16.2954 16.0767 16.8151 15.5611 16.8151 14.8163C16.8729 14.1288 16.3531 13.6132 15.5445 13.6132Z" fill="white"/>
<path d="M22.301 12.9257H23.1096V19.3422H22.301V12.9257Z" fill="white"/>
<path d="M27.2678 12.9257H28.1918L30.3864 18.4829L32.5809 12.9257H33.505L30.9062 19.3422H29.9243L27.2678 12.9257Z" fill="white"/>
<path d="M37.6633 12.9257H41.9369V13.6132H38.4718V15.6756H41.8214V16.3631H38.4718V18.5975H41.9369V19.285H37.6633V12.9257Z" fill="white"/>
<path d="M48.5791 16.7642H47.3086V19.3422H46.5V12.9257H49.0988C50.3116 12.9257 51.1201 13.6705 51.1201 14.8735C51.1201 16.0194 50.3116 16.6496 49.4453 16.7642L51.1779 19.3995H50.2539L48.5791 16.7642ZM48.9833 13.6132H47.3086V16.0767H48.9833C49.7341 16.0767 50.2539 15.5611 50.2539 14.8163C50.3116 14.1288 49.7918 13.6132 48.9833 13.6132Z" fill="white"/>
<path d="M57.9906 17.0506H56.9511V19.3422H55.5651V12.9257H58.6258C59.9542 12.9257 60.8204 13.785 60.8204 14.9882C60.8204 16.134 60.1274 16.7642 59.3767 16.8788L60.8204 19.3422H59.2611L57.9906 17.0506ZM58.4526 14.0715H57.0089V15.8475H58.4526C59.0301 15.8475 59.4344 15.5037 59.4344 14.9309C59.4344 14.358 58.9723 14.0715 58.4526 14.0715Z" fill="white"/>
<path d="M68.271 12.8099C70.2341 12.8099 71.678 14.1849 71.678 16.1328C71.678 18.0807 70.2341 19.4557 68.271 19.4557C66.3072 19.4557 64.8635 18.0807 64.8635 16.1328C64.8635 14.1849 66.3072 12.8099 68.271 12.8099ZM68.271 14.0131C67.0583 14.0131 66.3072 14.9297 66.3072 16.1328C66.3072 17.3359 67.0583 18.2525 68.271 18.2525C69.4837 18.2525 70.2341 17.3359 70.2341 16.1328C70.2341 14.9297 69.4256 14.0131 68.271 14.0131Z" fill="white"/>
<path d="M75.6049 16.1328C75.6049 14.1276 77.1063 12.8099 79.0119 12.8099C80.5133 12.8099 81.3218 13.5547 81.7842 14.3568L80.5715 14.9297C80.2821 14.4141 79.7048 14.0131 79.0119 14.0131C77.8567 14.0131 77.0482 14.9297 77.0482 16.1328C77.0482 17.3359 77.9148 18.2525 79.0119 18.2525C79.7048 18.2525 80.3403 17.8515 80.5715 17.3359L81.7842 17.9088C81.3218 18.7109 80.5133 19.513 79.0119 19.513C77.1063 19.4557 75.6049 18.138 75.6049 16.1328Z" fill="white"/>
<path d="M87.791 16.7642L87.2712 17.3371V19.3422H85.8854V12.9257H87.2712V15.7902L89.5811 12.9257H91.2562L88.657 15.9621L91.4292 19.3995H89.7548L87.791 16.7642Z" fill="white"/>
<path d="M101.137 3.32593V28.8248H3.35261V3.32593H101.137ZM104.49 0H0V32.1507H104.49V0Z" fill="white"/>
</svg>
